<svg width="261" height="261" viewBox="0 0 261 261" fill="none" xmlns="http://www.w3.org/2000/svg">
<g clipPath="url(#clip0_852_2446)">
<path d="M261 199.613H0V199.743H261V199.613Z" fill="#EBEBEB"/>
<path d="M234.848 208.012H217.559V208.142H234.848V208.012Z" fill="#EBEBEB"/>
<path d="M157.352 208.08H152.815V208.21H157.352V208.08Z" fill="#EBEBEB"/>
<path d="M217.032 203.168H184.96V203.298H217.032V203.168Z" fill="#EBEBEB"/>
<path d="M117.523 206.248H110.899V206.378H117.523V206.248Z" fill="#EBEBEB"/>
<path d="M106.253 206.248H87.0278V206.378H106.253V206.248Z" fill="#EBEBEB"/>
<path d="M40.6582 204.045H27.3838V204.175H40.6582V204.045Z" fill="#EBEBEB"/>
<path d="M82.8831 204.045H43.7905V204.175H82.8831V204.045Z" fill="#EBEBEB"/>
<path d="M123.714 176.332H22.9212C22.1316 176.33 21.3748 176.016 20.817 175.457C20.2591 174.898 19.9458 174.141 19.9458 173.351V31.6645C19.9527 30.8794 20.269 30.1287 20.8261 29.5756C21.3832 29.0224 22.1361 28.7113 22.9212 28.71H123.714C124.505 28.71 125.263 29.024 125.822 29.583C126.381 30.1419 126.695 30.9001 126.695 31.6906V173.351C126.695 174.141 126.381 174.9 125.822 175.459C125.263 176.018 124.505 176.332 123.714 176.332ZM22.9212 28.8144C22.1662 28.8157 21.4426 29.1166 20.9092 29.651C20.3759 30.1853 20.0763 30.9095 20.0763 31.6645V173.351C20.0763 174.106 20.3759 174.83 20.9092 175.364C21.4426 175.899 22.1662 176.2 22.9212 176.201H123.714C124.47 176.2 125.194 175.899 125.728 175.365C126.262 174.831 126.563 174.106 126.564 173.351V31.6645C126.563 30.909 126.262 30.1849 125.728 29.6507C125.194 29.1165 124.47 28.8157 123.714 28.8144H22.9212Z" fill="#EBEBEB"/>
<path d="M236.628 176.332H135.83C135.04 176.33 134.282 176.016 133.724 175.457C133.165 174.898 132.851 174.141 132.849 173.351V31.6645C132.857 30.8789 133.175 30.1283 133.733 29.5752C134.291 29.0222 135.044 28.7113 135.83 28.71H236.628C237.412 28.7127 238.164 29.0243 238.72 29.5774C239.276 30.1304 239.591 30.8803 239.598 31.6645V173.351C239.598 174.14 239.286 174.896 238.729 175.455C238.172 176.014 237.417 176.329 236.628 176.332ZM135.83 28.8144C135.074 28.8157 134.35 29.1165 133.816 29.6507C133.282 30.1849 132.981 30.909 132.98 31.6645V173.351C132.981 174.106 133.282 174.831 133.816 175.365C134.35 175.899 135.074 176.2 135.83 176.201H236.628C237.383 176.2 238.108 175.899 238.642 175.365C239.176 174.831 239.477 174.106 239.478 173.351V31.6645C239.477 30.909 239.176 30.1849 238.642 29.6507C238.108 29.1165 237.383 28.8157 236.628 28.8144H135.83Z" fill="#EBEBEB"/>
<path d="M99.5872 130.244L226.454 130.244V37.5737L99.5872 37.5737L99.5872 130.244Z" fill="#E6E6E6"/>
<path d="M93.9809 130.244L225.154 130.244V37.5737L93.9809 37.5737V130.244Z" fill="#F0F0F0"/>
<path d="M217.298 122.393V45.4243L101.826 45.4243V122.393H217.298Z" fill="#FAFAFA"/>
<path d="M189.23 122.388L162.942 45.4243H137.839L164.127 122.388H189.23Z" fill="white"/>
<path d="M158.735 122.388L132.447 45.4243H122.665L148.953 122.388H158.735Z" fill="white"/>
<path d="M102.829 122.393V45.4243H101.832V122.393H102.829Z" fill="#E6E6E6"/>
<path d="M33.7054 105.037H78.5034L78.5034 41.5249L33.7054 41.5249L33.7054 105.037Z" fill="#E0E0E0"/>
<path d="M30.5368 105.037H76.7129L76.7129 41.5249L30.5368 41.5249L30.5368 105.037Z" fill="#F5F5F5"/>
<path d="M72.1562 100.025V46.5256H35.0942V100.025H72.1562Z" fill="white"/>
<path d="M51.1197 149.501C54.4448 141.295 62.3531 138.241 65.0884 133.058C68.6641 126.272 68.6432 116.088 65.6104 112.418C62.9586 109.223 54.189 130.813 53.2025 133.225C50.4958 139.734 48.8023 146.619 48.1808 153.64C48.2539 148.572 48.3218 143.915 48.3792 140.324C48.5671 128.61 48.7968 124.841 48.9012 123.683C49.2666 123.114 49.6998 122.456 49.9452 122.117C52.0697 119.126 56.7782 115.56 59.1324 111.212C62.5671 104.859 62.0138 97.259 59.6022 94.4297C57.0809 91.47 52.6283 98.4648 50.2636 105.392C47.8989 112.319 48.9064 118.964 48.2435 124.706C48.1077 125.833 47.9616 130.119 47.8311 136.07C47.1107 129.67 45.6804 125.384 43.0339 121.386C39.7766 116.474 36.963 110.492 34.28 111.264C31.5969 112.037 33.0376 119.956 35.1621 125.51C37.0622 130.458 46.3799 135.396 47.7528 139.374C47.591 147.434 47.4448 157.644 47.3456 167.16C46.6096 162.248 47.1159 161.836 44.0988 154.314C42.3083 149.845 34.9742 144.333 34.0868 147.402C33.1994 150.472 34.541 156.276 37.3128 160.348C39.5522 163.626 44.5164 163.621 45.6648 165.657C45.931 166.132 46.8184 167.953 47.3247 168.997C47.2047 180.607 47.1525 190.859 47.2099 194.351L47.6901 194.388C47.6901 193.484 47.7267 187.602 47.8206 179.772C49.0265 175.596 57.1436 173.189 59.6492 168.862C62.2592 164.336 64.1592 159.053 63.0317 155.519C62.0921 152.57 54.6797 156.563 51.6991 161.465C49.6998 164.722 48.4784 168.194 47.9094 172.86C47.9772 167.536 48.0555 161.815 48.1286 156.417C48.7394 155.06 50.1122 151.959 51.1197 149.501Z" fill="#E6E6E6"/>
<path d="M55.8854 199.613H38.8265C38.3757 199.612 37.9388 199.456 37.5898 199.171C37.2408 198.886 37.0009 198.488 36.9107 198.047L35.6997 192.096H59.0174L57.8064 198.062C57.7111 198.501 57.4687 198.894 57.1192 199.176C56.7698 199.458 56.3345 199.612 55.8854 199.613Z" fill="#F0F0F0"/>
<path d="M59.5079 194.388H35.2088C34.9273 194.387 34.656 194.283 34.4462 194.095C34.2364 193.908 34.1028 193.65 34.0708 193.37L33.5488 188.959C33.5313 188.799 33.5476 188.637 33.5967 188.483C33.6458 188.33 33.7267 188.189 33.834 188.069C33.9413 187.948 34.0727 187.852 34.2196 187.786C34.3666 187.72 34.5257 187.686 34.6868 187.685H59.9725C60.1338 187.685 60.2934 187.719 60.4407 187.785C60.588 187.85 60.7197 187.947 60.8272 188.067C60.9347 188.187 61.0155 188.329 61.0643 188.483C61.1131 188.636 61.1289 188.799 61.1104 188.959L60.5884 193.37C60.5579 193.64 60.4326 193.891 60.2348 194.077C60.0369 194.263 59.7793 194.373 59.5079 194.388Z" fill="#F0F0F0"/>
<path d="M211.739 195.807H216.954V139.698H211.739V195.807Z" fill="#F0F0F0"/>
<path d="M105.476 199.545H214.955V195.807H105.476V199.545Z" fill="#F0F0F0"/>
<path d="M211.744 139.698H103.476V195.808H211.744V139.698Z" fill="#F5F5F5"/>
<path d="M212.971 139.698H218.358V136.159H212.971V139.698Z" fill="#E0E0E0"/>
<path d="M212.971 136.158H102.072V139.698H212.971V136.158Z" fill="#EBEBEB"/>
<path d="M203.971 163.908H111.243C110.136 163.908 109.074 163.468 108.291 162.685C107.507 161.902 107.067 160.839 107.067 159.732V147.726C107.067 146.618 107.507 145.556 108.291 144.773C109.074 143.99 110.136 143.55 111.243 143.55H203.971C205.079 143.55 206.141 143.99 206.924 144.773C207.707 145.556 208.147 146.618 208.147 147.726V159.732C208.147 160.839 207.707 161.902 206.924 162.685C206.141 163.468 205.079 163.908 203.971 163.908ZM111.243 144.594C110.413 144.594 109.616 144.924 109.029 145.511C108.441 146.099 108.111 146.895 108.111 147.726V159.732C108.111 160.562 108.441 161.359 109.029 161.946C109.616 162.534 110.413 162.864 111.243 162.864H203.971C204.802 162.864 205.599 162.534 206.186 161.946C206.773 161.359 207.103 160.562 207.103 159.732V147.726C207.103 146.895 206.773 146.099 206.186 145.511C205.599 144.924 204.802 144.594 203.971 144.594H111.243Z" fill="white"/>
<path d="M203.971 189.063H111.243C110.136 189.063 109.074 188.623 108.291 187.84C107.507 187.057 107.067 185.995 107.067 184.887V172.881C107.067 171.774 107.507 170.712 108.291 169.928C109.074 169.145 110.136 168.705 111.243 168.705H203.971C205.079 168.705 206.141 169.145 206.924 169.928C207.707 170.712 208.147 171.774 208.147 172.881V184.887C208.147 185.995 207.707 187.057 206.924 187.84C206.141 188.623 205.079 189.063 203.971 189.063ZM111.243 169.708C110.413 169.708 109.616 170.038 109.029 170.625C108.441 171.212 108.111 172.009 108.111 172.84V184.846C108.111 185.676 108.441 186.473 109.029 187.06C109.616 187.648 110.413 187.978 111.243 187.978H203.971C204.802 187.978 205.599 187.648 206.186 187.06C206.773 186.473 207.103 185.676 207.103 184.846V172.84C207.103 172.009 206.773 171.212 206.186 170.625C205.599 170.038 204.802 169.708 203.971 169.708H111.243Z" fill="white"/>
<path d="M182.898 155.556H132.317C131.958 155.556 131.613 155.414 131.359 155.16C131.104 154.907 130.961 154.563 130.959 154.204V153.212C130.961 152.853 131.104 152.509 131.359 152.256C131.613 152.002 131.958 151.86 132.317 151.86H182.898C183.258 151.86 183.602 152.002 183.856 152.256C184.111 152.509 184.254 152.853 184.256 153.212V154.204C184.254 154.563 184.111 154.907 183.856 155.16C183.602 155.414 183.258 155.556 182.898 155.556ZM132.317 152.946C132.235 152.947 132.157 152.98 132.098 153.037C132.04 153.095 132.006 153.172 132.003 153.254V154.246C132.006 154.327 132.04 154.405 132.098 154.462C132.157 154.52 132.235 154.552 132.317 154.554H182.898C182.981 154.554 183.06 154.521 183.118 154.464C183.177 154.406 183.21 154.328 183.212 154.246V153.254C183.21 153.172 183.177 153.093 183.118 153.036C183.06 152.978 182.981 152.946 182.898 152.946H132.317Z" fill="white"/>
<path d="M182.898 180.711H132.317C131.958 180.711 131.613 180.569 131.359 180.316C131.104 180.062 130.961 179.718 130.959 179.359V178.368C130.961 178.009 131.104 177.665 131.359 177.411C131.613 177.158 131.958 177.016 132.317 177.016H182.898C183.258 177.016 183.602 177.158 183.856 177.411C184.111 177.665 184.254 178.009 184.256 178.368V179.359C184.254 179.718 184.111 180.062 183.856 180.316C183.602 180.569 183.258 180.711 182.898 180.711ZM132.317 178.06C132.235 178.061 132.157 178.094 132.098 178.151C132.04 178.208 132.006 178.286 132.003 178.368V179.359C132.006 179.441 132.04 179.519 132.098 179.576C132.157 179.633 132.235 179.666 132.317 179.667H182.898C182.981 179.667 183.06 179.635 183.118 179.578C183.177 179.52 183.21 179.442 183.212 179.359V178.368C183.21 178.285 183.177 178.207 183.118 178.15C183.06 178.092 182.981 178.06 182.898 178.06H132.317Z" fill="white"/>
<path d="M127.89 223.186C183.787 223.186 229.101 220.541 229.101 217.277C229.101 214.014 183.787 211.368 127.89 211.368C71.9932 211.368 26.6797 214.014 26.6797 217.277C26.6797 220.541 71.9932 223.186 127.89 223.186Z" fill="#F5F5F5"/>
<path d="M195.64 87.5668L195.441 90.6401L195.962 90.6738L196.161 87.6004L195.64 87.5668Z" fill="#009444"/>
<path d="M196.433 75.0845L195.781 85.1851L196.302 85.2187L196.954 75.118L196.433 75.0845Z" fill="#009444"/>
<path d="M190.238 60.4163H128.876C127.301 60.444 125.792 61.0577 124.645 62.1377C123.497 63.2177 122.793 64.6865 122.67 66.2575L114.741 188.667C114.683 189.417 114.782 190.171 115.031 190.881C115.28 191.591 115.674 192.242 116.188 192.792C116.702 193.341 117.324 193.778 118.016 194.075C118.708 194.371 119.454 194.52 120.206 194.513H181.557C183.135 194.487 184.647 193.873 185.798 192.792C186.948 191.711 187.655 190.24 187.779 188.667L195.703 66.2575C195.761 65.5074 195.662 64.7535 195.413 64.0436C195.164 63.3337 194.77 62.6834 194.256 62.1341C193.742 61.5847 193.119 61.1483 192.427 60.8526C191.736 60.5569 190.99 60.4083 190.238 60.4163Z" fill="#009444"/>
<path opacity="0.7" d="M188.291 60.4163H128.876C127.301 60.444 125.792 61.0577 124.645 62.1377C123.497 63.2177 122.793 64.6865 122.67 66.2575L114.741 188.667C114.683 189.417 114.782 190.171 115.031 190.881C115.28 191.591 115.674 192.242 116.188 192.792C116.702 193.341 117.324 193.778 118.016 194.075C118.708 194.371 119.454 194.52 120.206 194.513H179.61C181.188 194.487 182.7 193.873 183.851 192.792C185.001 191.711 185.707 190.24 185.832 188.667L193.756 66.2575C193.814 65.5074 193.715 64.7535 193.466 64.0436C193.217 63.3337 192.823 62.6834 192.309 62.1341C191.795 61.5847 191.172 61.1483 190.48 60.8526C189.789 60.5569 189.043 60.4083 188.291 60.4163Z" fill="white"/>
<path d="M183.279 185.467H117.925C117.68 185.467 117.438 185.417 117.214 185.321C116.989 185.224 116.787 185.082 116.62 184.904C116.453 184.726 116.324 184.515 116.241 184.285C116.158 184.055 116.124 183.81 116.139 183.566L123.312 72.7981C123.341 72.3457 123.541 71.9213 123.872 71.6111C124.202 71.3009 124.638 71.1281 125.092 71.1277H190.451C190.696 71.1279 190.938 71.1783 191.163 71.2756C191.387 71.373 191.589 71.5154 191.756 71.6939C191.924 71.8725 192.053 72.0834 192.135 72.3137C192.218 72.544 192.252 72.7888 192.237 73.033L185.064 183.796C185.035 184.249 184.834 184.675 184.503 184.985C184.171 185.295 183.733 185.468 183.279 185.467Z" fill="white"/>
<path d="M168.758 67.5053H145.001C144.879 67.5064 144.758 67.4821 144.646 67.4339C144.533 67.3857 144.432 67.3147 144.349 67.2253C144.265 67.136 144.201 67.0303 144.161 66.915C144.121 66.7996 144.105 66.6771 144.114 66.5553C144.138 66.3021 144.254 66.0664 144.439 65.8924C144.625 65.7185 144.867 65.6182 145.121 65.6104H168.878C169 65.6086 169.121 65.6323 169.233 65.6799C169.345 65.7275 169.446 65.798 169.53 65.8869C169.613 65.9759 169.677 66.0812 169.718 66.1963C169.758 66.3114 169.774 66.4336 169.765 66.5553C169.742 66.8094 169.627 67.0463 169.441 67.2214C169.256 67.3964 169.013 67.4974 168.758 67.5053Z" fill="white"/>
<path d="M150.216 190.117C150.177 190.743 149.904 191.331 149.449 191.763C148.995 192.195 148.394 192.439 147.767 192.446C147.466 192.448 147.168 192.389 146.891 192.271C146.614 192.154 146.364 191.98 146.157 191.762C145.95 191.544 145.79 191.285 145.687 191.002C145.584 190.719 145.541 190.418 145.559 190.117C145.599 189.493 145.873 188.906 146.327 188.475C146.781 188.044 147.382 187.801 148.008 187.795C148.308 187.791 148.607 187.85 148.884 187.967C149.161 188.084 149.411 188.257 149.618 188.475C149.825 188.693 149.985 188.951 150.088 189.234C150.191 189.516 150.234 189.817 150.216 190.117Z" fill="white"/>
<path opacity="0.2" d="M176.159 101.79H120.352L116.803 156.548H176.159C177.708 156.545 179.193 155.929 180.289 154.834C181.384 153.74 182.002 152.255 182.006 150.707V107.652C182.007 106.1 181.392 104.61 180.296 103.511C179.2 102.412 177.712 101.793 176.159 101.79Z" fill="#009444"/>
<path d="M170.961 96.9407H102.569C99.3397 96.9407 96.7222 99.5582 96.7222 102.787V145.857C96.7222 149.086 99.3397 151.704 102.569 151.704H170.961C174.19 151.704 176.807 149.086 176.807 145.857V102.787C176.807 99.5582 174.19 96.9407 170.961 96.9407Z" fill="#009444"/>
<path d="M94.8531 96.3089C94.7161 96.3083 94.5849 96.2539 94.4876 96.1575L93.5481 95.2231C93.4498 95.1248 93.3945 94.9915 93.3945 94.8525C93.3945 94.7135 93.4498 94.5802 93.5481 94.4819C93.6463 94.3836 93.7797 94.3284 93.9187 94.3284C94.0577 94.3284 94.191 94.3836 94.2893 94.4819L95.2237 95.4215C95.3209 95.5193 95.3755 95.6516 95.3755 95.7895C95.3755 95.9274 95.3209 96.0597 95.2237 96.1575C95.1749 96.2059 95.117 96.2442 95.0534 96.2701C94.9898 96.2961 94.9217 96.3093 94.8531 96.3089Z" fill="#009444"/>
<path d="M93.4384 99.587H92.1177C91.9793 99.587 91.8465 99.532 91.7486 99.4341C91.6507 99.3362 91.5957 99.2034 91.5957 99.065C91.5957 98.9265 91.6507 98.7938 91.7486 98.6959C91.8465 98.598 91.9793 98.543 92.1177 98.543H93.4384C93.5768 98.543 93.7096 98.598 93.8075 98.6959C93.9054 98.7938 93.9604 98.9265 93.9604 99.065C93.9604 99.2034 93.9054 99.3362 93.8075 99.4341C93.7096 99.532 93.5768 99.587 93.4384 99.587Z" fill="#009444"/>
<path d="M98.1784 94.8994C98.046 94.8997 97.9185 94.8497 97.8216 94.7596C97.7247 94.6695 97.6656 94.5459 97.6564 94.4139L97.5624 93.0932C97.5574 93.0247 97.5661 92.9558 97.5878 92.8905C97.6095 92.8253 97.6439 92.765 97.6891 92.7131C97.7342 92.6612 97.7891 92.6187 97.8507 92.5881C97.9122 92.5575 97.9793 92.5393 98.0479 92.5347C98.1855 92.5261 98.321 92.5723 98.4247 92.6633C98.5283 92.7543 98.5918 92.8826 98.6012 93.0202L98.7004 94.3408C98.7053 94.4094 98.6967 94.4783 98.675 94.5435C98.6532 94.6088 98.6188 94.6691 98.5737 94.721C98.5286 94.7729 98.4737 94.8154 98.4121 94.846C98.3505 94.8766 98.2835 94.8947 98.2149 94.8994H98.1784Z" fill="#009444"/>
<path d="M142.605 146.071L163.606 167.066V146.071H142.605Z" fill="#009444"/>
<path d="M148.363 136.873L147.319 132.442C147.055 131.277 147.055 130.068 147.319 128.903L148.77 122.592C149.364 119.9 149.042 117.088 147.857 114.6C146.671 112.112 144.689 110.091 142.224 108.858C142.271 108.742 142.311 108.623 142.344 108.503C142.43 108.12 142.44 107.724 142.372 107.337C142.305 106.951 142.162 106.582 141.952 106.25C141.742 105.919 141.468 105.632 141.148 105.407C140.827 105.181 140.464 105.021 140.082 104.935C139.699 104.849 139.303 104.84 138.916 104.907C138.53 104.974 138.16 105.117 137.829 105.327C137.498 105.538 137.211 105.811 136.985 106.132C136.76 106.453 136.599 106.815 136.514 107.198C136.488 107.32 136.472 107.444 136.467 107.568C133.712 107.633 131.057 108.615 128.923 110.358C126.789 112.102 125.298 114.507 124.685 117.194L123.271 123.51C123.011 124.673 122.493 125.763 121.757 126.7L118.943 130.275C118.668 130.626 118.486 131.041 118.414 131.481C118.343 131.921 118.383 132.372 118.533 132.792C118.682 133.212 118.936 133.587 119.27 133.883C119.603 134.178 120.006 134.385 120.441 134.483L145.236 140.037C145.67 140.13 146.12 140.113 146.545 139.987C146.97 139.86 147.356 139.629 147.668 139.313C147.98 138.998 148.207 138.609 148.328 138.183C148.45 137.756 148.462 137.306 148.363 136.873Z" fill="white"/>
<path d="M129.639 138.241C129.45 138.199 129.254 138.205 129.068 138.257C128.882 138.309 128.712 138.407 128.573 138.54C128.434 138.674 128.329 138.84 128.269 139.024C128.209 139.207 128.196 139.403 128.229 139.593C128.372 140.432 128.761 141.209 129.346 141.826C129.932 142.443 130.688 142.872 131.518 143.058C132.349 143.244 133.215 143.178 134.008 142.87C134.801 142.561 135.484 142.024 135.971 141.326C136.082 141.169 136.153 140.986 136.177 140.795C136.201 140.604 136.177 140.41 136.109 140.23C136.04 140.05 135.929 139.89 135.783 139.763C135.638 139.637 135.464 139.548 135.276 139.504L129.639 138.241Z" fill="white"/>
<path d="M110.597 129.456C110.467 129.457 110.34 129.425 110.226 129.364C110.112 129.303 110.015 129.214 109.944 129.106C107.479 125.413 106.581 120.891 107.45 116.535C108.318 112.18 110.881 108.348 114.574 105.882C114.747 105.768 114.959 105.726 115.163 105.767C115.366 105.808 115.545 105.929 115.66 106.102C115.775 106.275 115.816 106.486 115.775 106.69C115.734 106.894 115.614 107.073 115.441 107.187C112.097 109.427 109.779 112.902 108.996 116.849C108.213 120.797 109.029 124.894 111.265 128.24C111.38 128.412 111.423 128.623 111.382 128.827C111.342 129.03 111.223 129.21 111.051 129.325C110.916 129.414 110.758 129.46 110.597 129.456Z" fill="white"/>
<path d="M113.911 127.232C113.783 127.231 113.657 127.199 113.544 127.138C113.431 127.077 113.335 126.989 113.264 126.882C111.387 124.069 110.704 120.625 111.365 117.308C112.026 113.991 113.976 111.072 116.787 109.192C116.873 109.135 116.969 109.095 117.07 109.075C117.171 109.055 117.275 109.055 117.376 109.075C117.477 109.095 117.574 109.135 117.659 109.192C117.745 109.249 117.819 109.323 117.876 109.408C117.933 109.494 117.973 109.59 117.993 109.691C118.013 109.792 118.013 109.896 117.993 109.997C117.973 110.099 117.933 110.195 117.876 110.28C117.818 110.366 117.745 110.44 117.659 110.497C115.191 112.144 113.479 114.703 112.898 117.613C112.318 120.522 112.917 123.543 114.564 126.011C114.679 126.183 114.721 126.394 114.681 126.598C114.641 126.801 114.522 126.981 114.35 127.096C114.22 127.183 114.067 127.23 113.911 127.232Z" fill="white"/>
<path d="M117.231 125.014C117.103 125.014 116.977 124.983 116.864 124.923C116.751 124.863 116.655 124.776 116.584 124.669C115.944 123.712 115.5 122.637 115.276 121.508C115.052 120.378 115.053 119.215 115.279 118.086C115.505 116.957 115.951 115.883 116.593 114.927C117.234 113.97 118.058 113.15 119.016 112.512C119.189 112.405 119.396 112.369 119.594 112.412C119.793 112.454 119.967 112.572 120.08 112.741C120.193 112.909 120.236 113.115 120.2 113.315C120.165 113.515 120.053 113.693 119.888 113.812C119.102 114.337 118.426 115.011 117.901 115.797C117.375 116.583 117.01 117.465 116.825 118.393C116.64 119.32 116.64 120.275 116.825 121.202C117.009 122.129 117.374 123.011 117.899 123.798C118.013 123.97 118.055 124.181 118.015 124.384C117.975 124.587 117.856 124.767 117.685 124.883C117.551 124.972 117.392 125.017 117.231 125.014Z" fill="white"/>
<path d="M155.739 140.465C155.564 140.464 155.394 140.405 155.257 140.297C155.119 140.189 155.022 140.037 154.98 139.867C154.939 139.697 154.956 139.518 155.028 139.359C155.1 139.199 155.224 139.069 155.379 138.988C158.955 137.14 161.652 133.947 162.875 130.112C164.099 126.277 163.749 122.113 161.904 118.536C161.848 118.444 161.811 118.341 161.797 118.235C161.782 118.128 161.789 118.02 161.818 117.916C161.847 117.812 161.897 117.716 161.965 117.633C162.033 117.549 162.118 117.481 162.214 117.431C162.309 117.382 162.414 117.353 162.522 117.346C162.629 117.339 162.737 117.354 162.838 117.391C162.939 117.427 163.032 117.484 163.11 117.558C163.188 117.632 163.25 117.721 163.292 117.82C164.301 119.775 164.914 121.91 165.097 124.102C165.28 126.294 165.029 128.5 164.359 130.595C163.689 132.69 162.613 134.633 161.192 136.312C159.771 137.991 158.034 139.374 156.078 140.381C155.973 140.433 155.857 140.462 155.739 140.465Z" fill="white"/>
<path d="M153.907 136.92C153.732 136.92 153.562 136.861 153.425 136.753C153.287 136.644 153.19 136.493 153.148 136.323C153.107 136.153 153.124 135.974 153.196 135.814C153.268 135.655 153.392 135.524 153.547 135.443C154.853 134.77 156.014 133.845 156.963 132.723C157.911 131.601 158.629 130.302 159.076 128.902C159.522 127.502 159.689 126.028 159.565 124.563C159.441 123.099 159.03 121.673 158.355 120.368C158.259 120.183 158.241 119.968 158.304 119.77C158.367 119.571 158.506 119.406 158.691 119.311C158.876 119.215 159.091 119.197 159.289 119.26C159.488 119.323 159.653 119.463 159.748 119.647C160.518 121.135 160.986 122.761 161.127 124.43C161.268 126.099 161.079 127.78 160.569 129.376C160.06 130.972 159.242 132.451 158.16 133.731C157.079 135.01 155.756 136.064 154.267 136.832C154.157 136.891 154.033 136.921 153.907 136.92Z" fill="white"/>
<path d="M152.075 133.376C151.9 133.373 151.732 133.313 151.595 133.204C151.459 133.095 151.363 132.944 151.322 132.774C151.28 132.604 151.297 132.426 151.368 132.267C151.439 132.107 151.561 131.976 151.715 131.894C152.555 131.461 153.302 130.867 153.912 130.146C154.523 129.424 154.985 128.589 155.273 127.689C155.56 126.788 155.667 125.84 155.588 124.898C155.509 123.957 155.244 123.04 154.81 122.2C154.714 122.015 154.696 121.8 154.759 121.602C154.823 121.404 154.962 121.239 155.147 121.143C155.331 121.047 155.547 121.029 155.745 121.092C155.943 121.156 156.108 121.295 156.204 121.48C157.266 123.547 157.465 125.951 156.756 128.165C156.048 130.379 154.49 132.221 152.424 133.287C152.316 133.343 152.197 133.374 152.075 133.376Z" fill="white"/>
<path d="M106.154 65.6937H102.166C102.062 65.6963 101.963 65.7355 101.886 65.8043C101.808 65.8731 101.758 65.9671 101.743 66.0695L100.908 74.0248C100.902 74.0727 100.906 74.1214 100.921 74.1675C100.935 74.2136 100.959 74.2561 100.991 74.2922C101.023 74.3283 101.063 74.3571 101.107 74.3767C101.151 74.3963 101.199 74.4062 101.247 74.4059H105.235C105.34 74.403 105.439 74.3631 105.517 74.2933C105.594 74.2234 105.644 74.1282 105.658 74.0248L106.493 66.0695C106.499 66.0218 106.495 65.9734 106.481 65.9276C106.466 65.8817 106.442 65.8395 106.41 65.8038C106.378 65.7681 106.338 65.7398 106.294 65.7208C106.25 65.7018 106.202 65.6926 106.154 65.6937Z" fill="#009444"/>
<path opacity="0.4" d="M105.794 65.6938H102.166C102.062 65.6964 101.963 65.7356 101.886 65.8044C101.808 65.8732 101.758 65.9671 101.743 66.0696L100.908 74.0249C100.902 74.0728 100.906 74.1215 100.921 74.1676C100.935 74.2137 100.959 74.2562 100.991 74.2923C101.023 74.3284 101.063 74.3572 101.107 74.3768C101.151 74.3964 101.199 74.4063 101.247 74.4059H104.901C105.005 74.4029 105.104 74.3628 105.181 74.2929C105.257 74.223 105.306 74.1279 105.319 74.0249L106.154 66.0696C106.161 66.0199 106.157 65.9691 106.142 65.9212C106.127 65.8733 106.101 65.8295 106.066 65.7932C106.031 65.7569 105.989 65.7291 105.942 65.7118C105.894 65.6946 105.844 65.6884 105.794 65.6938Z" fill="white"/>
<path d="M86.1664 212.793C86.6884 212.793 87.2104 212.715 87.3931 212.475C87.4376 212.41 87.4614 212.334 87.4614 212.255C87.4614 212.177 87.4376 212.101 87.3931 212.036C87.317 211.919 87.1996 211.835 87.0643 211.801C86.3543 211.608 84.9136 212.454 84.851 212.49C84.8347 212.501 84.822 212.516 84.8145 212.533C84.807 212.551 84.8052 212.571 84.8092 212.59C84.8131 212.61 84.8231 212.629 84.838 212.644C84.8529 212.659 84.872 212.669 84.8927 212.673C85.3132 212.749 85.7392 212.789 86.1664 212.793ZM86.8033 211.974C86.8674 211.965 86.9323 211.965 86.9964 211.974C87.0794 211.994 87.1519 212.044 87.2 212.115C87.2731 212.24 87.2522 212.302 87.2 212.334C87.0173 212.61 85.9472 212.616 85.159 212.506C85.6652 212.219 86.2247 212.038 86.8033 211.974Z" fill="#009444"/>
<path d="M84.8823 212.673H84.9241C85.4461 212.444 86.3961 211.53 86.2969 211.05C86.2969 210.94 86.1873 210.799 85.9106 210.773C85.8127 210.762 85.7136 210.772 85.6194 210.8C85.5252 210.829 85.4378 210.877 85.3625 210.94C84.8405 211.384 84.7831 212.506 84.7779 212.569C84.7772 212.587 84.7812 212.605 84.7894 212.622C84.7976 212.638 84.8098 212.652 84.8249 212.663C84.8426 212.672 84.8626 212.675 84.8823 212.673ZM85.8428 210.961H85.9002C86.0829 210.961 86.0986 211.05 86.0986 211.071C86.1612 211.358 85.5035 212.078 84.9971 212.391C85.0291 211.912 85.2118 211.455 85.5191 211.086C85.6096 211.009 85.7238 210.965 85.8428 210.961Z" fill="#009444"/>
<path d="M84.4543 202.786H80.2261V212.574H84.4543V202.786Z" fill="#FF8B7B"/>
<path d="M49.564 207.907L53.7869 208.367L56.5379 198.866L52.3149 198.407L49.564 207.907Z" fill="#FF8B7B"/>
<path d="M55.7497 209.322C56.2717 209.457 56.7937 209.515 57.0286 209.322C57.086 209.268 57.125 209.198 57.14 209.121C57.155 209.044 57.1452 208.965 57.1121 208.894C57.0906 208.829 57.0565 208.768 57.0117 208.716C56.9669 208.664 56.9124 208.622 56.8511 208.591C56.1986 208.231 54.5804 208.685 54.5125 208.701C54.4926 208.706 54.4749 208.717 54.4618 208.733C54.4487 208.749 54.4409 208.769 54.4395 208.789C54.4394 208.81 54.4453 208.83 54.4564 208.848C54.4675 208.866 54.4833 208.88 54.5021 208.888C54.9049 209.068 55.3223 209.213 55.7497 209.322ZM56.5744 208.695C56.6378 208.711 56.6991 208.733 56.7571 208.763C56.8345 208.8 56.8944 208.866 56.9242 208.946C56.9659 209.087 56.9242 209.139 56.9242 209.17C56.6736 209.384 55.6244 209.129 54.8779 208.826C55.4299 208.674 56.0062 208.631 56.5744 208.701V208.695Z" fill="#009444"/>
<path d="M54.5227 208.899H54.5645C55.0865 208.8 56.2871 208.163 56.308 207.683C56.308 207.568 56.2662 207.411 56 207.317C55.9062 207.284 55.8066 207.269 55.7071 207.275C55.6076 207.28 55.5102 207.305 55.4206 207.349C54.8046 207.646 54.4601 208.722 54.4444 208.763C54.4357 208.778 54.4312 208.796 54.4312 208.813C54.4312 208.83 54.4357 208.848 54.4444 208.863C54.4533 208.875 54.4651 208.885 54.4788 208.891C54.4925 208.897 54.5077 208.9 54.5227 208.899ZM55.8799 207.495H55.9426C56.1148 207.558 56.1096 207.631 56.1096 207.652C56.1096 207.944 55.2744 208.471 54.7002 208.643C54.8448 208.192 55.1302 207.799 55.5145 207.521C55.6292 207.468 55.759 207.459 55.8799 207.495Z" fill="#009444"/>
<path d="M54.0113 207.975L49.3916 206.649C49.3122 206.626 49.227 206.63 49.1507 206.663C49.0744 206.695 49.0119 206.753 48.974 206.827L47.2722 210.204C47.2325 210.29 47.2121 210.383 47.2124 210.477C47.2127 210.572 47.2339 210.665 47.2742 210.75C47.3146 210.835 47.3732 210.91 47.4459 210.97C47.5187 211.03 47.6037 211.074 47.6951 211.097C49.3133 211.53 50.1224 211.666 52.1529 212.245C53.4005 212.606 55.9427 213.472 57.6705 213.968C59.3983 214.464 60.0351 212.84 59.367 212.485C56.3707 210.893 55.4102 209.609 54.6168 208.419C54.4745 208.204 54.2596 208.046 54.0113 207.975Z" fill="#263238"/>
<path d="M84.4074 212.084H79.7929C79.7099 212.083 79.6293 212.112 79.566 212.165C79.5027 212.219 79.461 212.294 79.4484 212.376L78.775 216.108C78.7599 216.201 78.7652 216.297 78.7905 216.387C78.8158 216.478 78.8605 216.563 78.9215 216.635C78.9825 216.707 79.0585 216.764 79.144 216.804C79.2296 216.844 79.3227 216.865 79.4171 216.865C81.0822 216.834 83.4834 216.735 85.5767 216.735C88.0248 216.735 89.3612 216.87 92.2322 216.87C93.9652 216.87 94.3724 215.116 93.6363 214.955C90.3008 214.234 88.3746 214.156 85.4409 212.391C85.1293 212.2 84.7729 212.094 84.4074 212.084Z" fill="#263238"/>
<path opacity="0.2" d="M84.4543 202.786H80.2261V207.834H84.4543V202.786Z" fill="black"/>
<path opacity="0.2" d="M52.3149 198.412L56.5378 198.866L55.0084 204.138L50.895 203.308L52.3149 198.412Z" fill="black"/>
<path d="M77.5012 105.444C77.5012 105.444 75.1679 137.359 73.0799 149.459C70.7779 162.713 57.3834 203.293 57.3834 203.293L49.71 201.889C49.71 201.889 59.3826 163.783 60.4527 150.66C61.6168 136.42 63.0157 107.068 63.0157 107.068L77.5012 105.444Z" fill="#009444"/>
<path opacity="0.3" d="M73.5708 118.703C73.9884 116.949 74.9489 119.157 76.066 122.983C75.2204 132.452 74.1189 143.42 73.0645 149.464C72.8296 150.816 72.4746 152.455 72.0205 154.314C72.4224 140.804 72.4381 123.448 73.5708 118.703Z" fill="black"/>
<path d="M85.4722 104.577C85.4722 104.577 88.5363 136.66 88.6407 149.548C88.7503 162.958 85.9889 206.858 85.9889 206.858H78.8219C78.8219 206.858 76.6712 163.741 75.7786 150.571C74.8025 136.216 70.6943 106.201 70.6943 106.201L85.4722 104.577Z" fill="#009444"/>
<path d="M58.9862 200.709C59.0175 200.709 57.7804 203.491 57.7804 203.491L49.1465 201.925L49.6685 199.341L58.9862 200.709Z" fill="#263238"/>
<path d="M87.2419 204.003C87.2732 204.003 86.9652 206.978 86.9652 206.978H78.2583L77.9033 204.326L87.2419 204.003Z" fill="#263238"/>
<path d="M63.2247 75.9822C62.6505 77.094 62.0189 78.2633 61.4447 79.4169L59.6908 82.8934C59.1218 84.0523 58.5633 85.2163 58.0256 86.3804C57.488 87.5445 56.9816 88.7033 56.5484 89.8621L56.5066 88.0351C56.8117 88.9733 57.1779 89.8905 57.6028 90.7809C57.8064 91.2402 58.0674 91.6787 58.2918 92.1328C58.5163 92.587 58.8138 93.0202 59.0801 93.4483C59.6339 94.3331 60.2333 95.1886 60.8757 96.0113C61.1994 96.4237 61.523 96.8465 61.8675 97.2432C62.2121 97.6399 62.5879 98.0523 62.9115 98.3916L63.0159 98.5065C63.2564 98.7705 63.395 99.1116 63.4069 99.4686C63.4188 99.8255 63.3033 100.175 63.0809 100.455C62.8586 100.734 62.544 100.925 62.1935 100.994C61.843 101.063 61.4795 101.004 61.1681 100.829C60.6285 100.525 60.1057 100.193 59.6021 99.8323C59.0801 99.4878 58.6207 99.1276 58.1509 98.7466C57.2104 97.9751 56.3276 97.136 55.5096 96.2358C54.6745 95.321 53.9151 94.3399 53.2389 93.3021C52.5441 92.2449 51.9399 91.1308 51.4328 89.9718C51.2094 89.4798 51.1705 88.924 51.3231 88.4058L51.3962 88.1604C51.7929 86.798 52.2366 85.4773 52.7273 84.1828C53.218 82.8882 53.74 81.6198 54.2933 80.3722C54.8466 79.1246 55.4261 77.8927 56.0368 76.6764C56.6475 75.4602 57.2635 74.27 57.9682 73.0537C58.3577 72.3577 59.0061 71.8434 59.7725 71.6226C60.539 71.4019 61.3616 71.4925 62.0616 71.8749C62.7616 72.2572 63.2825 72.9003 63.511 73.6645C63.7396 74.4287 63.6573 75.2522 63.2822 75.9561L63.2247 75.9822Z" fill="#FF8B7B"/>
<path d="M66.221 74.1238C66.4298 78.1066 61.9093 85.4198 61.9093 85.4198L52.6021 80.7688C53.7331 77.4699 55.4836 74.4172 57.7594 71.7748C62.6819 66.3355 66.0279 70.4698 66.221 74.1238Z" fill="#263238"/>
<path d="M59.9155 100.083L61.7895 103.215L65.6888 100.72C65.0078 99.4992 63.9412 98.539 62.656 97.9896C62.3589 97.8947 62.0375 97.9094 61.7502 98.031C61.4629 98.1526 61.2287 98.3731 61.09 98.6526L59.9155 100.083Z" fill="#FF8B7B"/>
<path d="M63.3498 104.551L65.1612 104.212C65.3137 104.184 65.459 104.126 65.589 104.041C65.7189 103.957 65.8307 103.847 65.9181 103.719C66.0054 103.591 66.0666 103.447 66.0979 103.295C66.1293 103.143 66.1302 102.986 66.1008 102.834L65.6884 100.746L61.7891 103.241L62.0501 103.873C62.1568 104.117 62.344 104.318 62.5804 104.441C62.8168 104.565 63.0883 104.604 63.3498 104.551Z" fill="#FF8B7B"/>
<path d="M74.3484 54.1104C74.385 54.4497 74.599 54.716 74.8182 54.6951C75.0375 54.6742 75.1836 54.3871 75.1419 54.0478C75.1001 53.7085 74.8913 53.4423 74.6721 53.4579C74.4528 53.4736 74.3067 53.7659 74.3484 54.1104Z" fill="#263238"/>
<path d="M74.5674 54.7158C75.0953 55.7297 75.7534 56.6703 76.5249 57.5137C76.0029 58.1245 74.9589 57.947 74.9589 57.947L74.5674 54.7158Z" fill="#FF5652"/>
<path d="M72.8866 52.3096C72.9137 52.3137 72.9414 52.3115 72.9676 52.3034C72.9939 52.2953 73.0179 52.2813 73.038 52.2626C73.219 52.0932 73.4388 51.9707 73.6782 51.9061C73.9176 51.8415 74.1692 51.8366 74.4108 51.892C74.4355 51.8999 74.4615 51.9026 74.4873 51.9C74.5131 51.8973 74.538 51.8894 74.5606 51.8766C74.5831 51.8639 74.6028 51.8466 74.6183 51.8259C74.6339 51.8052 74.645 51.7815 74.651 51.7563C74.664 51.7044 74.6567 51.6495 74.6305 51.6029C74.6043 51.5563 74.5611 51.5215 74.51 51.5057C74.2048 51.4329 73.8865 51.4357 73.5826 51.514C73.2787 51.5922 72.9986 51.7435 72.7665 51.9547C72.7471 51.9732 72.7317 51.9955 72.7211 52.0201C72.7105 52.0448 72.7051 52.0714 72.7051 52.0982C72.7051 52.125 72.7105 52.1516 72.7211 52.1763C72.7317 52.201 72.7471 52.2232 72.7665 52.2418C72.781 52.2605 72.7991 52.2762 72.8197 52.2878C72.8403 52.2995 72.8631 52.3069 72.8866 52.3096Z" fill="#263238"/>
<path d="M63.8252 57.8896C64.8222 60.912 66.1481 66.4818 64.2585 68.7159C64.2585 68.7159 65.5008 71.7592 71.2219 71.2737C77.5225 70.7517 73.8319 67.9068 73.8319 67.9068C70.2928 67.3848 70.0527 64.8322 70.345 62.3945L63.8252 57.8896Z" fill="#FF8B7B"/>
<path d="M62.906 69.8173C62.3162 68.8725 61.6584 67.7919 62.7755 67.39C64.0022 66.9463 70.8926 66.2259 73.346 66.8314C75.7994 67.437 75.2983 69.4414 75.2983 69.4414L62.906 69.8173Z" fill="#009444"/>
<path d="M83.0816 71.0913C83.9794 71.9161 84.9504 72.8296 85.9161 73.6648C86.8818 74.5 87.8579 75.3561 88.8393 76.1808C89.8206 77.0056 90.8229 77.7834 91.8303 78.5403C92.8378 79.2972 93.8609 79.9862 94.884 80.6283L92.796 80.4299C93.6637 80.1985 94.4849 79.8188 95.2233 79.3076C96.0861 78.7046 96.887 78.0174 97.6141 77.2561C98.3976 76.4542 99.1316 75.6053 99.8117 74.714C100.161 74.2599 100.511 73.8005 100.856 73.3255C101.2 72.8505 101.513 72.3493 101.801 71.9109L101.858 71.8273C102.056 71.5245 102.357 71.3031 102.705 71.2034C103.053 71.1038 103.425 71.1325 103.753 71.2844C104.082 71.4363 104.345 71.7013 104.494 72.0309C104.644 72.3606 104.669 72.733 104.567 73.0801C104.369 73.7587 104.16 74.3382 103.92 74.9437C103.68 75.5492 103.429 76.1443 103.147 76.7289C102.576 77.9215 101.907 79.0651 101.148 80.148C100.351 81.2964 99.4227 82.3476 98.3814 83.28C97.2289 84.3089 95.8915 85.1095 94.4403 85.6395C94.1288 85.7492 93.7986 85.7961 93.4689 85.7773C93.1391 85.7584 92.8164 85.6743 92.5194 85.5298L92.3471 85.4411C91.051 84.8041 89.7926 84.093 88.5783 83.3113C87.3933 82.544 86.2449 81.7453 85.1383 80.8893C84.0316 80.0332 82.9615 79.1667 81.9175 78.2793C80.8735 77.3919 79.8713 76.4627 78.8534 75.4239C78.3117 74.859 78.0099 74.1062 78.0112 73.3235C78.0126 72.5409 78.3169 71.7891 78.8605 71.226C79.404 70.6629 80.1445 70.3321 80.9266 70.3031C81.7088 70.2741 82.4717 70.5491 83.0555 71.0704L83.0816 71.0913Z" fill="#FF8B7B"/>
<path d="M79.8922 68.3817C79.8922 68.3817 85.154 73.4869 85.7647 105.063C77.3501 107.104 69.2538 107.855 63.0003 107.062C62.7027 103.1 62.259 89.3504 58.2396 74.8545C58.067 74.2439 58.0231 73.6042 58.1109 72.9758C58.1986 72.3474 58.416 71.7441 58.7493 71.2042C59.0826 70.6642 59.5244 70.1995 60.0469 69.8394C60.5693 69.4794 61.1608 69.2318 61.784 69.1125C62.5827 68.9559 63.4231 68.815 64.2583 68.7053C67.4312 68.2515 70.6277 67.9813 73.8318 67.8962C75.8609 67.9128 77.8863 68.075 79.8922 68.3817Z" fill="#263238"/>
<path d="M75.81 73.8837C76.332 77.8353 83.118 85.4304 83.118 85.4304L91.1725 77.0784C88.7799 74.5665 86.1932 72.2468 83.4364 70.141C77.5326 65.7301 75.3402 70.2193 75.81 73.8837Z" fill="#263238"/>
<path d="M104.045 74.4683L106.738 71.9993L103.513 68.6846C102.445 69.5932 101.711 70.8309 101.425 72.2029C101.393 72.5165 101.476 72.8309 101.658 73.0881C101.841 73.3453 102.11 73.5277 102.416 73.6018L104.045 74.4683Z" fill="#FF8B7B"/>
<path d="M107.73 70.2038L107.036 68.4968C106.977 68.3504 106.89 68.2172 106.779 68.1052C106.667 67.9932 106.535 67.9046 106.389 67.8448C106.243 67.7849 106.086 67.7549 105.928 67.7567C105.771 67.7584 105.615 67.7917 105.47 67.8548L103.492 68.6848L106.718 71.9995L107.281 71.6184C107.508 71.4703 107.676 71.2487 107.758 70.991C107.839 70.7333 107.83 70.4552 107.73 70.2038Z" fill="#FF8B7B"/>
<path d="M63.0212 54.2881C63.7781 58.4641 64.0078 60.9383 66.3568 62.9272C69.8907 65.9182 74.7662 63.5901 75.2308 59.3254C75.6693 55.4834 74.359 49.2977 70.11 47.951C65.8609 46.6042 62.2643 50.1121 63.0212 54.2881Z" fill="#FF8B7B"/>
<path d="M71.2532 55.7911C72.72 56.1252 73.8632 54.4287 74.0198 53.9484C73.3047 54.0163 72.0362 53.6509 71.7856 53.3273C72.5686 53.3951 73.3255 52.4294 73.4195 52.0588C72.5887 51.8984 71.853 51.421 71.368 50.7277C72.6365 50.7016 74.1607 48.4674 72.767 46.4682C71.3733 44.4689 65.5477 46.1445 64.7282 44.7195C63.5067 45.4294 64.5925 46.3742 64.5925 46.3742C64.5925 46.3742 56.3501 47.9402 60.1503 51.1192C57.3628 51.3698 56.9713 54.6636 59.2942 56.3392C61.6171 58.0148 61.7371 59.1215 60.8132 58.9857C61.1838 59.6957 62.8386 59.7896 62.9325 59.1006C63.324 60.5465 64.4515 62.504 67.0511 62.1856C69.6507 61.8672 72.198 58.2288 71.2532 55.7911Z" fill="#263238"/>
<path d="M60.8702 50.6341C58.9075 50.9055 58.0149 49.7989 58.5056 48.8228C56.0731 50.0651 58.73 52.8108 60.8702 50.6341Z" fill="#263238"/>
<path d="M69.2222 55.1547C69.56 56.0296 70.1575 56.7801 70.9343 57.3054C71.9783 57.9944 72.9232 57.3054 72.7457 56.2614C72.5839 55.3009 71.8478 53.7819 70.7621 53.5104C70.5372 53.4366 70.296 53.4286 70.0667 53.4873C69.8374 53.5459 69.6297 53.6689 69.4679 53.8416C69.3061 54.0144 69.197 54.2297 69.1535 54.4623C69.11 54.695 69.1338 54.9352 69.2222 55.1547Z" fill="#FF8B7B"/>
<path d="M201.899 202.285C198.036 193.171 196.476 182.449 200.897 182.893C205.433 183.331 204.901 199.493 205.637 201.267C204.222 202.484 201.899 202.285 201.899 202.285Z" fill="#009444"/>
<path d="M203.152 184.991C202.202 188.468 201.195 193.839 200.427 198.391C200.866 199.696 201.362 201.001 201.899 202.285C201.899 202.285 204.217 202.484 205.642 201.267C205.057 199.868 205.266 189.512 203.152 184.991Z" fill="#263238"/>
<path d="M203.173 200.615C201.962 181.249 205.261 163.297 213.947 164.106C221.401 164.806 210.533 197.41 210.742 201.168C207.328 202.494 203.173 200.615 203.173 200.615Z" fill="#009444"/>
<path d="M208.8 200.49C210.162 186.568 217.507 170.323 220.66 175.752C224.663 182.643 214.396 199.054 214.119 201.753C211.551 202.306 208.8 200.49 208.8 200.49Z" fill="#009444"/>
<path d="M207.427 169.279C206.545 169.133 206.054 168.585 206.111 167.807C206.174 166.93 206.894 166.059 207.563 166.048C207.886 166.048 208.429 166.215 208.565 167.421L208.043 167.484C207.98 166.909 207.808 166.57 207.578 166.57C207.223 166.57 206.68 167.217 206.639 167.844C206.602 168.366 206.894 168.658 207.516 168.762L207.427 169.279Z" fill="#009444"/>
<path d="M216.802 172.782C216.423 172.751 216.06 172.612 215.758 172.38L216.04 171.947C216.526 172.26 216.902 172.343 217.048 172.166C217.267 171.884 217.116 171.059 216.661 170.626C216.296 170.276 215.868 170.302 215.393 170.72L215.054 170.323C215.176 170.186 215.325 170.074 215.491 169.996C215.658 169.917 215.838 169.873 216.022 169.866C216.206 169.859 216.389 169.89 216.561 169.956C216.733 170.022 216.89 170.122 217.022 170.25C217.658 170.856 217.872 171.962 217.455 172.49C217.378 172.587 217.278 172.665 217.165 172.716C217.051 172.767 216.927 172.789 216.802 172.782Z" fill="#009444"/>
<path d="M204.008 180.664C203.692 180.687 203.378 180.593 203.127 180.401C202.875 180.209 202.702 179.931 202.64 179.62C202.431 178.769 202.849 177.72 203.486 177.501C203.783 177.402 204.358 177.391 204.859 178.503L204.378 178.722C204.144 178.2 203.856 177.918 203.653 177.997C203.319 178.112 203 178.889 203.131 179.495C203.251 180.017 203.653 180.194 204.248 180.1L204.326 180.622C204.221 180.645 204.115 180.659 204.008 180.664Z" fill="#009444"/>
<path d="M198.449 191.475C198.194 191.48 197.944 191.409 197.731 191.27C197.518 191.132 197.351 190.932 197.253 190.697C196.888 189.898 197.102 188.786 197.681 188.452C197.958 188.296 198.522 188.181 199.221 189.183L198.793 189.48C198.459 189.005 198.141 188.791 197.942 188.906C197.635 189.084 197.467 189.909 197.728 190.472C197.942 190.937 198.35 191.062 198.939 190.853L199.112 191.349C198.9 191.429 198.675 191.472 198.449 191.475Z" fill="#009444"/>
<path d="M207.699 175.716C207.644 175.715 207.592 175.699 207.547 175.669C207.223 175.489 206.974 175.199 206.848 174.85C206.721 174.502 206.725 174.12 206.858 173.774C207.009 173.427 207.268 173.138 207.596 172.95C207.924 172.762 208.304 172.685 208.68 172.73C209.003 172.787 209.76 173.074 209.813 174.463C209.813 174.532 209.785 174.598 209.736 174.647C209.687 174.696 209.621 174.724 209.552 174.724C209.482 174.724 209.416 174.696 209.367 174.647C209.318 174.598 209.291 174.532 209.291 174.463C209.259 173.737 209.014 173.299 208.586 173.22C208.326 173.2 208.066 173.26 207.843 173.394C207.619 173.528 207.443 173.728 207.338 173.967C207.15 174.411 207.338 174.86 207.86 175.23C207.906 175.262 207.94 175.308 207.958 175.36C207.976 175.413 207.977 175.47 207.96 175.523C207.943 175.576 207.909 175.623 207.864 175.655C207.819 175.688 207.765 175.706 207.709 175.705L207.699 175.716Z" fill="white"/>
<path d="M213.884 189.804C213.825 189.805 213.767 189.785 213.721 189.746C213.675 189.708 213.644 189.655 213.634 189.596C213.626 189.562 213.625 189.528 213.631 189.494C213.637 189.461 213.65 189.428 213.668 189.4C213.687 189.371 213.711 189.346 213.739 189.327C213.767 189.308 213.799 189.294 213.832 189.288C214.542 189.141 214.934 188.823 214.944 188.39C214.921 188.13 214.817 187.884 214.648 187.686C214.479 187.488 214.252 187.347 213.999 187.283C213.529 187.168 213.112 187.424 212.835 187.998C212.82 188.029 212.799 188.057 212.773 188.079C212.748 188.102 212.718 188.12 212.685 188.131C212.653 188.142 212.618 188.146 212.584 188.144C212.55 188.142 212.516 188.133 212.485 188.118C212.455 188.103 212.427 188.082 212.404 188.056C212.382 188.031 212.364 188.001 212.353 187.968C212.342 187.936 212.337 187.901 212.339 187.867C212.341 187.833 212.35 187.799 212.365 187.769C212.493 187.422 212.74 187.132 213.06 186.95C213.381 186.768 213.756 186.704 214.119 186.772C214.488 186.862 214.818 187.069 215.06 187.361C215.302 187.654 215.445 188.016 215.466 188.395C215.466 188.724 215.299 189.517 213.942 189.799L213.884 189.804Z" fill="white"/>
<path d="M221.223 185.404C220.921 185.404 220.519 185.226 220.07 184.553L220.503 184.261C220.827 184.741 221.135 184.96 221.338 184.851C221.651 184.684 221.86 183.859 221.584 183.285C221.385 182.82 220.978 182.684 220.383 182.877L220.221 182.382C221.067 182.105 221.756 182.382 222.064 183.081C222.414 183.885 222.179 184.992 221.589 185.31C221.477 185.373 221.351 185.405 221.223 185.404Z" fill="#009444"/>
<path d="M219.668 205.6C219.672 202.814 218.673 200.12 216.854 198.01C217.033 197.984 217.196 197.895 217.315 197.759C217.434 197.623 217.5 197.449 217.502 197.269C217.5 197.065 217.418 196.87 217.274 196.726C217.129 196.582 216.933 196.501 216.729 196.501H199.253C199.062 196.504 198.88 196.578 198.741 196.708C198.602 196.839 198.517 197.016 198.503 197.206C198.489 197.396 198.546 197.584 198.663 197.734C198.781 197.884 198.95 197.984 199.138 198.015C197.995 199.343 197.166 200.911 196.713 202.603C196.259 204.295 196.194 206.068 196.52 207.789C196.847 209.51 197.557 211.136 198.599 212.544C199.64 213.953 200.986 215.108 202.536 215.925C202.367 216.012 202.232 216.153 202.154 216.326C202.075 216.499 202.057 216.694 202.102 216.878C202.147 217.063 202.253 217.226 202.403 217.343C202.553 217.46 202.737 217.523 202.927 217.522H213.049C213.273 217.521 213.487 217.431 213.645 217.273C213.804 217.115 213.893 216.901 213.895 216.677C213.894 216.522 213.851 216.371 213.771 216.238C213.691 216.106 213.577 215.998 213.441 215.925C215.32 214.934 216.893 213.448 217.991 211.629C219.088 209.809 219.668 207.725 219.668 205.6Z" fill="#263238"/>
<path d="M132.318 81.0446L133.119 77.66H133.567L133.669 78.2236L132.815 81.6829H132.334L132.318 81.0446ZM131.906 77.66L132.569 81.0446L132.514 81.6829H131.978L131.086 77.66H131.906ZM134.373 81.0308L135.028 77.66H135.849L134.959 81.6829H134.423L134.373 81.0308ZM133.818 77.66L134.625 81.0584L134.603 81.6829H134.122L133.263 78.2209L133.373 77.66H133.818ZM137.537 81.7381C137.305 81.7381 137.097 81.7013 136.913 81.6276C136.728 81.5521 136.572 81.448 136.443 81.3154C136.316 81.1828 136.218 81.029 136.15 80.854C136.082 80.6771 136.048 80.4893 136.048 80.2903V80.1798C136.048 79.9532 136.08 79.746 136.145 79.5581C136.209 79.3703 136.301 79.2073 136.421 79.0691C136.542 78.931 136.69 78.825 136.863 78.7514C137.036 78.6758 137.231 78.6381 137.449 78.6381C137.66 78.6381 137.848 78.6731 138.012 78.7431C138.176 78.8131 138.313 78.9125 138.424 79.0415C138.536 79.1704 138.621 79.3251 138.678 79.5057C138.735 79.6843 138.764 79.8833 138.764 80.1024V80.434H136.388V79.9035H137.982V79.8427C137.982 79.7322 137.962 79.6337 137.921 79.5471C137.882 79.4587 137.823 79.3887 137.744 79.3371C137.665 79.2855 137.564 79.2597 137.44 79.2597C137.335 79.2597 137.245 79.2828 137.17 79.3288C137.094 79.3749 137.032 79.4393 136.984 79.5222C136.938 79.6051 136.903 79.7027 136.879 79.8151C136.857 79.9256 136.846 80.0472 136.846 80.1798V80.2903C136.846 80.4101 136.863 80.5206 136.896 80.6219C136.931 80.7232 136.98 80.8107 137.043 80.8844C137.107 80.958 137.184 81.0151 137.275 81.0557C137.367 81.0962 137.471 81.1165 137.587 81.1165C137.73 81.1165 137.864 81.0888 137.987 81.0336C138.113 80.9765 138.22 80.8908 138.311 80.7766L138.698 81.1966C138.635 81.2868 138.549 81.3734 138.441 81.4563C138.334 81.5392 138.205 81.6073 138.054 81.6608C137.903 81.7123 137.73 81.7381 137.537 81.7381ZM142.311 78.348L141.217 81.6829H140.336L141.831 77.66H142.392L142.311 78.348ZM143.22 81.6829L142.124 78.348L142.035 77.66H142.602L144.105 81.6829H143.22ZM143.171 80.1853V80.8346H141.046V80.1853H143.171ZM145.224 79.3454V81.6829H144.428V78.6933H145.177L145.224 79.3454ZM146.124 78.674L146.111 79.4117C146.072 79.4062 146.025 79.4016 145.97 79.3979C145.916 79.3924 145.867 79.3896 145.823 79.3896C145.711 79.3896 145.613 79.4043 145.53 79.4338C145.449 79.4614 145.381 79.5029 145.326 79.5581C145.272 79.6134 145.232 79.6806 145.204 79.7598C145.178 79.839 145.164 79.9293 145.16 80.0306L145 79.9809C145 79.7875 145.019 79.6097 145.058 79.4476C145.097 79.2837 145.153 79.1409 145.226 79.0194C145.302 78.8978 145.394 78.8039 145.503 78.7375C145.611 78.6712 145.736 78.6381 145.876 78.6381C145.92 78.6381 145.965 78.6418 146.011 78.6491C146.057 78.6547 146.095 78.6629 146.124 78.674ZM147.821 81.7381C147.589 81.7381 147.381 81.7013 147.196 81.6276C147.012 81.5521 146.856 81.448 146.727 81.3154C146.6 81.1828 146.502 81.029 146.434 80.854C146.366 80.6771 146.332 80.4893 146.332 80.2903V80.1798C146.332 79.9532 146.364 79.746 146.428 79.5581C146.493 79.3703 146.585 79.2073 146.705 79.0691C146.826 78.931 146.973 78.825 147.147 78.7514C147.32 78.6758 147.515 78.6381 147.732 78.6381C147.944 78.6381 148.132 78.6731 148.296 78.7431C148.46 78.8131 148.597 78.9125 148.708 79.0415C148.82 79.1704 148.905 79.3251 148.962 79.5057C149.019 79.6843 149.048 79.8833 149.048 80.1024V80.434H146.671V79.9035H148.266V79.8427C148.266 79.7322 148.245 79.6337 148.205 79.5471C148.166 79.4587 148.107 79.3887 148.028 79.3371C147.949 79.2855 147.848 79.2597 147.724 79.2597C147.619 79.2597 147.529 79.2828 147.453 79.3288C147.378 79.3749 147.316 79.4393 147.268 79.5222C147.222 79.6051 147.187 79.7027 147.163 79.8151C147.141 79.9256 147.13 80.0472 147.13 80.1798V80.2903C147.13 80.4101 147.147 80.5206 147.18 80.6219C147.215 80.7232 147.264 80.8107 147.326 80.8844C147.391 80.958 147.468 81.0151 147.558 81.0557C147.65 81.0962 147.754 81.1165 147.871 81.1165C148.014 81.1165 148.148 81.0888 148.271 81.0336C148.396 80.9765 148.504 80.8908 148.594 80.7766L148.981 81.1966C148.919 81.2868 148.833 81.3734 148.724 81.4563C148.617 81.5392 148.489 81.6073 148.337 81.6608C148.186 81.7123 148.014 81.7381 147.821 81.7381ZM151.929 81.0446L152.731 77.66H153.178L153.28 78.2236L152.427 81.6829H151.946L151.929 81.0446ZM151.518 77.66L152.181 81.0446L152.125 81.6829H151.589L150.697 77.66H151.518ZM153.985 81.0308L154.64 77.66H155.46L154.571 81.6829H154.035L153.985 81.0308ZM153.43 77.66L154.236 81.0584L154.214 81.6829H153.734L152.874 78.2209L152.985 77.66H153.43ZM157.381 81.0087V79.677C157.381 79.5812 157.365 79.4992 157.334 79.4311C157.302 79.3611 157.254 79.3067 157.187 79.268C157.123 79.2294 157.039 79.21 156.936 79.21C156.847 79.21 156.771 79.2257 156.706 79.257C156.642 79.2865 156.592 79.3297 156.557 79.3868C156.522 79.4421 156.505 79.5075 156.505 79.583H155.709C155.709 79.4559 155.739 79.3353 155.797 79.2211C155.856 79.1069 155.942 79.0065 156.054 78.9199C156.167 78.8315 156.3 78.7624 156.455 78.7127C156.612 78.6629 156.787 78.6381 156.98 78.6381C157.212 78.6381 157.418 78.6768 157.599 78.7541C157.779 78.8315 157.921 78.9475 158.024 79.1023C158.129 79.257 158.182 79.4504 158.182 79.6825V80.9617C158.182 81.1257 158.192 81.2601 158.212 81.3651C158.233 81.4683 158.262 81.5585 158.301 81.6359V81.6829H157.497C157.458 81.6018 157.429 81.5005 157.408 81.3789C157.39 81.2555 157.381 81.1321 157.381 81.0087ZM157.486 79.8621L157.491 80.3124H157.046C156.941 80.3124 156.85 80.3244 156.773 80.3484C156.695 80.3723 156.632 80.4064 156.582 80.4506C156.532 80.4929 156.496 80.5427 156.472 80.5998C156.45 80.6569 156.438 80.7195 156.438 80.7877C156.438 80.8558 156.454 80.9175 156.485 80.9728C156.517 81.0262 156.562 81.0686 156.621 81.0999C156.68 81.1293 156.749 81.1441 156.828 81.1441C156.948 81.1441 157.052 81.1201 157.14 81.0722C157.229 81.0244 157.297 80.9654 157.345 80.8954C157.394 80.8254 157.42 80.7591 157.422 80.6965L157.632 81.0336C157.603 81.1091 157.562 81.1874 157.51 81.2684C157.461 81.3495 157.397 81.4259 157.32 81.4977C157.242 81.5677 157.149 81.6258 157.041 81.6718C156.932 81.716 156.803 81.7381 156.654 81.7381C156.464 81.7381 156.292 81.7004 156.137 81.6248C155.984 81.5475 155.863 81.4416 155.773 81.3071C155.684 81.1708 155.64 81.0161 155.64 80.8429C155.64 80.6864 155.669 80.5473 155.728 80.4257C155.787 80.3041 155.874 80.2019 155.988 80.119C156.104 80.0343 156.249 79.9707 156.422 79.9284C156.595 79.8842 156.796 79.8621 157.024 79.8621H157.486ZM159.635 78.6933V81.6829H158.837V78.6933H159.635ZM158.787 77.9142C158.787 77.7981 158.828 77.7024 158.909 77.6268C158.99 77.5513 159.098 77.5136 159.235 77.5136C159.369 77.5136 159.477 77.5513 159.558 77.6268C159.641 77.7024 159.682 77.7981 159.682 77.9142C159.682 78.0302 159.641 78.126 159.558 78.2015C159.477 78.2771 159.369 78.3148 159.235 78.3148C159.098 78.3148 158.99 78.2771 158.909 78.2015C158.828 78.126 158.787 78.0302 158.787 77.9142ZM161.757 78.6933V79.257H160.016V78.6933H161.757ZM160.448 77.9556H161.243V80.7821C161.243 80.8687 161.254 80.935 161.276 80.9811C161.3 81.0271 161.335 81.0594 161.381 81.0778C161.427 81.0944 161.485 81.1026 161.555 81.1026C161.605 81.1026 161.649 81.1008 161.688 81.0971C161.729 81.0916 161.763 81.0861 161.79 81.0805L161.793 81.6663C161.725 81.6884 161.651 81.7059 161.572 81.7188C161.493 81.7317 161.405 81.7381 161.31 81.7381C161.135 81.7381 160.982 81.7096 160.851 81.6525C160.722 81.5935 160.623 81.4996 160.553 81.3706C160.483 81.2417 160.448 81.0722 160.448 80.8623V77.9556ZM163.05 78.6933V81.6829H162.252V78.6933H163.05ZM162.202 77.9142C162.202 77.7981 162.243 77.7024 162.324 77.6268C162.405 77.5513 162.513 77.5136 162.65 77.5136C162.784 77.5136 162.892 77.5513 162.973 77.6268C163.056 77.7024 163.097 77.7981 163.097 77.9142C163.097 78.0302 163.056 78.126 162.973 78.2015C162.892 78.2771 162.784 78.3148 162.65 78.3148C162.513 78.3148 162.405 78.2771 162.324 78.2015C162.243 78.126 162.202 78.0302 162.202 77.9142ZM164.487 79.3316V81.6829H163.691V78.6933H164.437L164.487 79.3316ZM164.371 80.0831H164.155C164.155 79.8621 164.184 79.6631 164.241 79.4863C164.298 79.3076 164.378 79.1557 164.481 79.0304C164.585 78.9033 164.707 78.8066 164.849 78.7403C164.993 78.6722 165.153 78.6381 165.33 78.6381C165.47 78.6381 165.598 78.6583 165.714 78.6989C165.83 78.7394 165.929 78.8039 166.012 78.8923C166.097 78.9807 166.161 79.0977 166.206 79.2432C166.252 79.3887 166.275 79.5664 166.275 79.7764V81.6829H165.473V79.7737C165.473 79.641 165.455 79.5379 165.418 79.4642C165.381 79.3905 165.327 79.339 165.255 79.3095C165.185 79.2782 165.098 79.2625 164.995 79.2625C164.889 79.2625 164.795 79.2837 164.716 79.3261C164.639 79.3684 164.574 79.4274 164.523 79.5029C164.473 79.5766 164.435 79.6631 164.41 79.7626C164.384 79.8621 164.371 79.9689 164.371 80.0831ZM168.772 78.6933H169.493V81.5834C169.493 81.856 169.433 82.0872 169.311 82.2769C169.191 82.4685 169.024 82.6131 168.808 82.7107C168.593 82.8101 168.342 82.8599 168.057 82.8599C167.931 82.8599 167.799 82.8433 167.659 82.8101C167.521 82.777 167.388 82.7254 167.261 82.6554C167.136 82.5854 167.031 82.497 166.946 82.3902L167.297 81.9205C167.389 82.0273 167.496 82.1102 167.617 82.1691C167.739 82.2299 167.873 82.2603 168.021 82.2603C168.164 82.2603 168.286 82.2336 168.385 82.1802C168.485 82.1286 168.561 82.0522 168.615 81.9509C168.668 81.8514 168.695 81.7308 168.695 81.5889V79.3841L168.772 78.6933ZM166.761 80.224V80.166C166.761 79.9376 166.789 79.7304 166.844 79.5443C166.901 79.3565 166.981 79.1953 167.084 79.0608C167.189 78.9264 167.316 78.8223 167.465 78.7486C167.615 78.6749 167.783 78.6381 167.971 78.6381C168.17 78.6381 168.337 78.6749 168.471 78.7486C168.606 78.8223 168.716 78.9273 168.803 79.0636C168.889 79.198 168.957 79.3574 169.004 79.5416C169.054 79.7239 169.093 79.9238 169.12 80.1411V80.2682C169.093 80.4764 169.051 80.6698 168.996 80.8484C168.941 81.0271 168.868 81.1837 168.778 81.3182C168.688 81.4508 168.575 81.5539 168.441 81.6276C168.308 81.7013 168.15 81.7381 167.966 81.7381C167.781 81.7381 167.615 81.7004 167.465 81.6248C167.318 81.5493 167.192 81.4434 167.087 81.3071C166.982 81.1708 166.901 81.0105 166.844 80.8263C166.789 80.6421 166.761 80.4414 166.761 80.224ZM167.557 80.166V80.224C167.557 80.3474 167.569 80.4626 167.593 80.5694C167.616 80.6762 167.653 80.7711 167.703 80.854C167.755 80.935 167.818 80.9986 167.894 81.0446C167.971 81.0888 168.062 81.1109 168.167 81.1109C168.313 81.1109 168.432 81.0805 168.524 81.0198C168.616 80.9571 168.685 80.8715 168.731 80.7628C168.777 80.6541 168.804 80.5289 168.811 80.387V80.0251C168.807 79.909 168.792 79.805 168.764 79.7129C168.736 79.6189 168.698 79.5388 168.648 79.4725C168.598 79.4062 168.534 79.3546 168.455 79.3178C168.375 79.2809 168.281 79.2625 168.173 79.2625C168.068 79.2625 167.977 79.2865 167.899 79.3343C167.824 79.3804 167.76 79.4439 167.709 79.525C167.659 79.606 167.621 79.7018 167.595 79.8123C167.569 79.921 167.557 80.0389 167.557 80.166ZM172.4 77.66V81.6829H171.571V77.66H172.4ZM174.003 79.3786V80.0251H172.174V79.3786H174.003ZM174.196 77.66V78.3093H172.174V77.66H174.196ZM174.439 80.2185V80.1605C174.439 79.9413 174.47 79.7396 174.533 79.5554C174.596 79.3693 174.687 79.2082 174.807 79.0719C174.926 78.9356 175.074 78.8296 175.249 78.7541C175.424 78.6768 175.624 78.6381 175.851 78.6381C176.078 78.6381 176.279 78.6768 176.456 78.7541C176.633 78.8296 176.781 78.9356 176.901 79.0719C177.022 79.2082 177.115 79.3693 177.177 79.5554C177.24 79.7396 177.271 79.9413 177.271 80.1605V80.2185C177.271 80.4358 177.24 80.6375 177.177 80.8236C177.115 81.0078 177.022 81.169 176.901 81.3071C176.781 81.4434 176.634 81.5493 176.459 81.6248C176.284 81.7004 176.083 81.7381 175.857 81.7381C175.63 81.7381 175.428 81.7004 175.251 81.6248C175.076 81.5493 174.928 81.4434 174.807 81.3071C174.687 81.169 174.596 81.0078 174.533 80.8236C174.47 80.6375 174.439 80.4358 174.439 80.2185ZM175.235 80.1605V80.2185C175.235 80.3437 175.246 80.4607 175.268 80.5694C175.29 80.6781 175.325 80.7738 175.373 80.8567C175.423 80.9378 175.487 81.0013 175.566 81.0474C175.646 81.0934 175.742 81.1165 175.857 81.1165C175.967 81.1165 176.062 81.0934 176.141 81.0474C176.22 81.0013 176.284 80.9378 176.332 80.8567C176.38 80.7738 176.415 80.6781 176.437 80.5694C176.461 80.4607 176.473 80.3437 176.473 80.2185V80.1605C176.473 80.0389 176.461 79.9247 176.437 79.8179C176.415 79.7092 176.379 79.6134 176.329 79.5305C176.281 79.4458 176.218 79.3795 176.138 79.3316C176.059 79.2837 175.963 79.2597 175.851 79.2597C175.739 79.2597 175.643 79.2837 175.564 79.3316C175.486 79.3795 175.423 79.4458 175.373 79.5305C175.325 79.6134 175.29 79.7092 175.268 79.8179C175.246 79.9247 175.235 80.0389 175.235 80.1605ZM178.556 79.3454V81.6829H177.76V78.6933H178.509L178.556 79.3454ZM179.457 78.674L179.443 79.4117C179.404 79.4062 179.357 79.4016 179.302 79.3979C179.249 79.3924 179.2 79.3896 179.155 79.3896C179.043 79.3896 178.946 79.4043 178.863 79.4338C178.782 79.4614 178.713 79.5029 178.658 79.5581C178.605 79.6134 178.564 79.6806 178.537 79.7598C178.511 79.839 178.496 79.9293 178.492 80.0306L178.332 79.9809C178.332 79.7875 178.351 79.6097 178.39 79.4476C178.429 79.2837 178.485 79.1409 178.559 79.0194C178.634 78.8978 178.726 78.8039 178.835 78.7375C178.944 78.6712 179.068 78.6381 179.208 78.6381C179.252 78.6381 179.297 78.6418 179.343 78.6491C179.389 78.6547 179.427 78.6629 179.457 78.674ZM144.141 86.66L144.98 88.4946L145.82 86.66H146.724L145.4 89.2185V90.6829H144.561V89.2185L143.234 86.66H144.141ZM146.732 89.2185V89.1605C146.732 88.9413 146.764 88.7396 146.826 88.5554C146.889 88.3693 146.98 88.2082 147.1 88.0719C147.219 87.9356 147.367 87.8296 147.542 87.7541C147.717 87.6768 147.918 87.6381 148.144 87.6381C148.371 87.6381 148.572 87.6768 148.749 87.7541C148.926 87.8296 149.074 87.9356 149.194 88.0719C149.316 88.2082 149.408 88.3693 149.47 88.5554C149.533 88.7396 149.564 88.9413 149.564 89.1605V89.2185C149.564 89.4358 149.533 89.6375 149.47 89.8236C149.408 90.0078 149.316 90.169 149.194 90.3071C149.074 90.4434 148.927 90.5493 148.752 90.6248C148.577 90.7004 148.376 90.7381 148.15 90.7381C147.923 90.7381 147.721 90.7004 147.545 90.6248C147.37 90.5493 147.221 90.4434 147.1 90.3071C146.98 90.169 146.889 90.0078 146.826 89.8236C146.764 89.6375 146.732 89.4358 146.732 89.2185ZM147.528 89.1605V89.2185C147.528 89.3437 147.539 89.4607 147.561 89.5694C147.583 89.6781 147.618 89.7738 147.666 89.8567C147.716 89.9378 147.78 90.0013 147.859 90.0474C147.939 90.0934 148.035 90.1165 148.15 90.1165C148.26 90.1165 148.355 90.0934 148.434 90.0474C148.513 90.0013 148.577 89.9378 148.625 89.8567C148.673 89.7738 148.708 89.6781 148.73 89.5694C148.754 89.4607 148.766 89.3437 148.766 89.2185V89.1605C148.766 89.0389 148.754 88.9247 148.73 88.8179C148.708 88.7092 148.672 88.6134 148.622 88.5305C148.574 88.4458 148.511 88.3795 148.431 88.3316C148.352 88.2837 148.256 88.2597 148.144 88.2597C148.032 88.2597 147.936 88.2837 147.857 88.3316C147.779 88.3795 147.716 88.4458 147.666 88.5305C147.618 88.6134 147.583 88.7092 147.561 88.8179C147.539 88.9247 147.528 89.0389 147.528 89.1605ZM151.822 89.9673V87.6933H152.617V90.6829H151.869L151.822 89.9673ZM151.91 89.3539L152.145 89.3484C152.145 89.5473 152.122 89.7324 152.076 89.9037C152.03 90.0732 151.961 90.2205 151.869 90.3458C151.776 90.4692 151.66 90.5659 151.52 90.6359C151.38 90.704 151.216 90.7381 151.026 90.7381C150.88 90.7381 150.746 90.7179 150.622 90.6773C150.501 90.635 150.396 90.5696 150.307 90.4812C150.221 90.3909 150.153 90.2758 150.103 90.1358C150.055 89.994 150.031 89.8236 150.031 89.6246V87.6933H150.827V89.6302C150.827 89.7186 150.837 89.7932 150.857 89.854C150.879 89.9148 150.91 89.9645 150.948 90.0032C150.987 90.0419 151.032 90.0695 151.084 90.0861C151.137 90.1026 151.196 90.1109 151.261 90.1109C151.425 90.1109 151.554 90.0778 151.647 90.0115C151.743 89.9452 151.811 89.8549 151.849 89.7407C151.89 89.6246 151.91 89.4957 151.91 89.3539ZM153.264 90.2988C153.264 90.1809 153.304 90.0824 153.385 90.0032C153.468 89.924 153.578 89.8844 153.714 89.8844C153.85 89.8844 153.959 89.924 154.04 90.0032C154.123 90.0824 154.165 90.1809 154.165 90.2988C154.165 90.4167 154.123 90.5152 154.04 90.5944C153.959 90.6737 153.85 90.7133 153.714 90.7133C153.578 90.7133 153.468 90.6737 153.385 90.5944C153.304 90.5152 153.264 90.4167 153.264 90.2988ZM155.966 91.079H161.625V85.4204H155.966V91.079ZM161.625 91.079H167.283V85.4204H161.625V91.079Z" fill="#009444"/>
</g>
<defs>
<clipPath id="clip0_852_2446">
<rect width="261" height="261" fill="white"/>
</clipPath>
</defs>
</svg>
